<svg width="90" height="24" viewBox="0 0 90 24" fill="none" xmlns="http://www.w3.org/2000/svg">
<path d="M16.8306 2.57214C15.7902 1.38636 13.9096 0.877993 11.5039 0.877993H4.52159C4.28344 0.877867 4.05306 0.962742 3.87191 1.11734C3.69076 1.27195 3.57074 1.48612 3.53344 1.72134L0.627414 20.1612C0.61394 20.2467 0.61917 20.3342 0.642745 20.4175C0.66632 20.5008 0.707679 20.5781 0.763973 20.6439C0.820267 20.7097 0.890157 20.7625 0.968829 20.7987C1.0475 20.8349 1.13308 20.8536 1.21968 20.8535H5.53025L6.61286 13.9868L6.5793 14.2018C6.61589 13.9671 6.73511 13.7531 6.91548 13.5985C7.09586 13.4439 7.32552 13.3588 7.5631 13.3585H9.61149C13.6356 13.3585 16.7864 11.724 17.7069 6.99582C17.7342 6.85598 17.7578 6.71988 17.7783 6.58688C18.0518 4.83929 17.7765 3.64978 16.8312 2.57276" fill="#003087"/>
<path d="M69.6008 11.346C69.3373 13.0762 68.016 13.0762 66.7383 13.0762H66.0112L66.5214 9.84576C66.5525 9.65061 66.7203 9.50705 66.9179 9.50705H67.2516C68.1217 9.50705 68.9433 9.50705 69.3671 10.0024C69.6201 10.2988 69.6965 10.7388 69.6008 11.346ZM69.0446 6.83159H64.2244C64.0648 6.83167 63.9104 6.88865 63.789 6.9923C63.6675 7.09595 63.587 7.23949 63.5619 7.39714L61.6142 19.7565C61.6052 19.8138 61.6088 19.8723 61.6246 19.9281C61.6404 19.9839 61.668 20.0356 61.7057 20.0797C61.7434 20.1238 61.7901 20.1593 61.8428 20.1836C61.8954 20.2079 61.9527 20.2206 62.0107 20.2207H64.4842C64.7148 20.2207 64.9111 20.0529 64.9472 19.8254L65.5003 16.3203C65.5513 15.9953 65.8322 15.7548 66.1616 15.7548H67.6867C70.8624 15.7548 72.6945 14.2191 73.1731 11.1732C73.3887 9.84203 73.1818 8.79546 72.5584 8.06274C71.8729 7.25731 70.6579 6.83097 69.0452 6.83097" fill="#009CDE"/>
<path d="M35.221 11.3478C34.9575 13.078 33.6363 13.078 32.3579 13.078H31.6308L32.141 9.84753C32.1721 9.65238 32.3399 9.50882 32.5375 9.50882H32.8712C33.7413 9.50882 34.5629 9.50882 34.9867 10.0041C35.2403 10.3006 35.3167 10.7406 35.221 11.3478ZM34.6648 6.83336H29.8446C29.5153 6.83336 29.2343 7.07325 29.1828 7.39891L27.2344 19.7582C27.2254 19.8155 27.2288 19.8741 27.2446 19.93C27.2603 19.9858 27.288 20.0376 27.3257 20.0817C27.3634 20.1259 27.4102 20.1613 27.4629 20.1856C27.5156 20.2099 27.5729 20.2225 27.6309 20.2225H29.9329C30.2623 20.2225 30.5426 19.9826 30.5941 19.6569L31.1205 16.3227C31.1715 15.997 31.4524 15.7572 31.7818 15.7572H33.3069C36.4826 15.7572 38.3148 14.2209 38.7933 11.175C39.0089 9.8438 38.802 8.79723 38.1786 8.06451C37.4932 7.25907 36.2782 6.83274 34.6654 6.83274L34.6648 6.83336ZM45.8558 15.7851C45.632 17.1039 44.5861 17.9895 43.2505 17.9895C42.5812 17.9895 42.0449 17.7738 41.7006 17.3662C41.3587 16.9622 41.2307 16.3861 41.3389 15.7453C41.5464 14.4378 42.6104 13.5242 43.9254 13.5242C44.5811 13.5242 45.1125 13.7417 45.4642 14.1531C45.8178 14.5676 45.9571 15.1469 45.8558 15.7851ZM49.0725 11.2918H46.7644C46.6684 11.2917 46.5756 11.3259 46.5026 11.3883C46.4297 11.4506 46.3814 11.537 46.3666 11.6318L46.2659 12.2769L46.1043 12.0432C45.6047 11.3179 44.4904 11.0749 43.3779 11.0749C40.828 11.0749 38.6497 13.0077 38.2259 15.7174C38.0053 17.0703 38.3185 18.3624 39.0854 19.2642C39.7895 20.0926 40.7944 20.4375 41.992 20.4375C44.0479 20.4375 45.1877 19.1175 45.1877 19.1175L45.0845 19.7588C45.0754 19.8162 45.0789 19.8749 45.0947 19.9308C45.1105 19.9867 45.1382 20.0385 45.176 20.0826C45.2137 20.1267 45.2606 20.1621 45.3134 20.1864C45.3661 20.2107 45.4235 20.2232 45.4816 20.2231H47.5598C47.8892 20.2231 48.1701 19.9838 48.2217 19.6575L49.4696 11.7567C49.4786 11.6993 49.4751 11.6406 49.4592 11.5847C49.4433 11.5289 49.4155 11.4771 49.3777 11.4329C49.3399 11.3888 49.293 11.3534 49.2402 11.3292C49.1874 11.3049 49.13 11.2924 49.0719 11.2925" fill="#003087"/>
<path d="M80.236 15.7851C80.0123 17.1039 78.9663 17.9895 77.6308 17.9895C76.9615 17.9895 76.4251 17.7738 76.0808 17.3662C75.739 16.9622 75.611 16.3861 75.7191 15.7453C75.9267 14.4378 76.99 13.5242 78.3057 13.5242C78.9614 13.5242 79.4927 13.7417 79.8445 14.1531C80.1981 14.5676 80.3373 15.1469 80.236 15.7851ZM83.4528 11.2918H81.1446C81.0487 11.2917 80.9558 11.3259 80.8829 11.3883C80.8099 11.4506 80.7617 11.537 80.7469 11.6318L80.6462 12.2769L80.4846 12.0432C79.9849 11.3179 78.8706 11.0749 77.7582 11.0749C75.2089 11.0749 73.0306 13.0077 72.6061 15.7174C72.3855 17.0703 72.6994 18.3624 73.4663 19.2642C74.1704 20.0926 75.1753 20.4375 76.3729 20.4375C78.4294 20.4375 79.5692 19.1175 79.5692 19.1175L79.466 19.7588C79.4567 19.8161 79.46 19.8748 79.4757 19.9307C79.4913 19.9866 79.5189 20.0384 79.5566 20.0826C79.5942 20.1267 79.641 20.1622 79.6938 20.1864C79.7465 20.2107 79.8039 20.2232 79.8619 20.2231H81.9395C82.2689 20.2231 82.5498 19.9838 82.602 19.6575L83.8499 11.7567C83.8589 11.6993 83.8553 11.6406 83.8395 11.5847C83.8236 11.5289 83.7958 11.4771 83.758 11.4329C83.7202 11.3888 83.6733 11.3534 83.6205 11.3292C83.5677 11.3049 83.5103 11.2924 83.4522 11.2925" fill="#009CDE"/>
<path d="M61.3659 11.2915H59.0453C58.8235 11.2915 58.6165 11.4015 58.4922 11.5855L55.2916 16.2988L53.9349 11.7694C53.8935 11.6313 53.8087 11.5101 53.6931 11.424C53.5775 11.3378 53.4372 11.2911 53.2929 11.2909H51.0127C50.9488 11.2909 50.8858 11.3062 50.8289 11.3355C50.7721 11.3647 50.723 11.4071 50.6858 11.4591C50.6487 11.5112 50.6244 11.5713 50.6151 11.6346C50.6058 11.6978 50.6117 11.7624 50.6324 11.8229L53.1867 19.3216L50.784 22.7118C50.7416 22.772 50.7165 22.8427 50.7114 22.9161C50.7064 22.9896 50.7216 23.0631 50.7555 23.1285C50.7894 23.1939 50.8405 23.2487 50.9034 23.287C50.9663 23.3253 51.0385 23.3456 51.1122 23.3457H53.4303C53.649 23.3457 53.8548 23.2382 53.9803 23.058L61.6953 11.9223C61.7372 11.8621 61.7618 11.7916 61.7665 11.7184C61.7711 11.6452 61.7556 11.5722 61.7217 11.5072C61.6877 11.4422 61.6366 11.3877 61.5739 11.3497C61.5112 11.3117 61.4393 11.2916 61.3659 11.2915Z" fill="#003087"/>
<path d="M86.1731 7.17287L84.1943 19.7584C84.1853 19.8158 84.1889 19.8744 84.2047 19.9302C84.2205 19.9861 84.2483 20.0378 84.286 20.0819C84.3237 20.126 84.3706 20.1615 84.4233 20.1858C84.476 20.21 84.5334 20.2226 84.5914 20.2227H86.5808C86.9101 20.2227 87.191 19.9828 87.2426 19.6571L89.1935 7.29717C89.2025 7.2398 89.1991 7.18115 89.1833 7.12526C89.1675 7.06936 89.1398 7.01756 89.102 6.97343C89.0642 6.92929 89.0174 6.89387 88.9646 6.86962C88.9118 6.84536 88.8544 6.83284 88.7963 6.83293H86.5702C86.4744 6.83268 86.3816 6.86678 86.3088 6.92903C86.2359 6.99128 86.1878 7.07756 86.1731 7.17225" fill="#009CDE"/>
<path d="M16.8306 2.57214C15.7902 1.38636 13.9096 0.877993 11.5039 0.877993H4.52159C4.28344 0.877867 4.05306 0.962742 3.87191 1.11734C3.69076 1.27195 3.57074 1.48612 3.53344 1.72134L0.627414 20.1612C0.61394 20.2467 0.61917 20.3342 0.642745 20.4175C0.66632 20.5008 0.707679 20.5781 0.763973 20.6439C0.820267 20.7097 0.890157 20.7625 0.968829 20.7987C1.0475 20.8349 1.13308 20.8536 1.21968 20.8535H5.53025L6.61286 13.9868L6.5793 14.2018C6.61589 13.9671 6.73511 13.7531 6.91548 13.5985C7.09586 13.4439 7.32552 13.3588 7.5631 13.3585H9.61149C13.6356 13.3585 16.7864 11.724 17.7069 6.99582C17.7342 6.85598 17.7578 6.71988 17.7783 6.58688C18.0518 4.83929 17.7765 3.64978 16.8312 2.57276" fill="#003087"/>
<path d="M7.77539 6.6105C7.80805 6.40497 7.9129 6.21782 8.0711 6.08262C8.22931 5.94742 8.43052 5.87303 8.63862 5.8728H14.1126C14.7608 5.8728 15.3655 5.91506 15.918 6.00331C16.2201 6.05191 16.5189 6.11874 16.8129 6.20343C17.1468 6.2973 17.4699 6.42603 17.7768 6.5875C18.0515 4.83929 17.7756 3.6504 16.8303 2.57276C15.7893 1.3876 13.9094 0.879234 11.5036 0.879234H4.52071C4.28277 0.879402 4.05269 0.964411 3.8718 1.11899C3.69091 1.27356 3.57107 1.48758 3.53381 1.72258L0.626536 20.1606C0.61297 20.2461 0.618111 20.3336 0.641604 20.4169C0.665098 20.5003 0.706385 20.5776 0.762622 20.6434C0.818858 20.7093 0.888707 20.7622 0.967353 20.7985C1.046 20.8347 1.13158 20.8535 1.21818 20.8535H5.52937L6.61198 13.9862L7.77539 6.6105Z" fill="#003087"/>
<path d="M17.7774 6.58632C17.7561 6.72306 17.7323 6.85939 17.706 6.99526C16.7856 11.7228 13.6347 13.3579 9.61061 13.3579H7.5616C7.32406 13.3581 7.09441 13.4432 6.91411 13.5979C6.73382 13.7525 6.61476 13.9665 6.57843 14.2013L5.52937 20.8523L5.23106 22.7391C5.2192 22.814 5.22373 22.8906 5.24432 22.9636C5.26492 23.0366 5.3011 23.1043 5.35037 23.1619C5.39964 23.2196 5.46082 23.2659 5.52971 23.2976C5.59859 23.3293 5.67354 23.3457 5.74938 23.3457H9.38315C9.81322 23.3457 10.1786 23.0325 10.2464 22.608L10.2818 22.4228L10.9667 18.0824L11.0102 17.8425C11.0427 17.6368 11.1476 17.4495 11.306 17.3143C11.4644 17.1791 11.6658 17.1048 11.874 17.1048H12.4178C15.9379 17.1048 18.6941 15.6754 19.4996 11.5389C19.8352 9.81117 19.6611 8.36748 18.7724 7.35385C18.4902 7.03959 18.1531 6.77949 17.7774 6.58632Z" fill="#009CDE"/>
<path d="M16.8137 6.20276C16.6733 6.16112 16.5285 6.12383 16.3793 6.09089C16.2302 6.05795 16.076 6.02874 15.9182 6.00389C15.3651 5.91377 14.761 5.87151 14.1122 5.87151H8.63881C8.43048 5.87126 8.22893 5.94555 8.0706 6.08097C7.91228 6.21638 7.80763 6.40397 7.77558 6.60983L6.61217 13.9868L6.57861 14.2012C6.61494 13.9664 6.734 13.7524 6.9143 13.5977C7.0946 13.4431 7.32425 13.358 7.56179 13.3578H9.6108C13.6349 13.3578 16.7858 11.7233 17.7062 6.99514C17.7335 6.85531 17.7565 6.71983 17.7776 6.58621C17.5346 6.45902 17.2814 6.35218 17.0207 6.26677C16.9529 6.2444 16.8839 6.22327 16.8137 6.20214" fill="#012169"/>
</svg>
