<svg width="55" height="24" viewBox="0 0 55 24" fill="none" xmlns="http://www.w3.org/2000/svg">
<rect width="55" height="24" rx="3" fill="white"/>
<path d="M26.6472 13.1479V19.3128H24.6934V4.09464H29.8753C31.1253 4.07037 32.3267 4.54366 33.2369 5.41743C34.1471 6.23052 34.6568 7.40768 34.6325 8.62125C34.6568 9.84696 34.1471 11.0241 33.2369 11.8493C32.3267 12.711 31.2102 13.1479 29.8874 13.1479H26.6472ZM26.6472 5.96354V11.279H29.9238C30.652 11.3032 31.3559 11.012 31.8534 10.4901C32.885 9.49502 32.8971 7.8567 31.902 6.82517L31.8534 6.77663C31.3559 6.24266 30.652 5.9514 29.9238 5.97567L26.6472 5.96354ZM39.1348 8.56057C40.579 8.56057 41.7197 8.94892 42.5571 9.71346C43.3945 10.4901 43.8071 11.546 43.8071 12.893V19.3007H41.9382V17.8565H41.8532C41.0401 19.0458 39.9722 19.6405 38.6251 19.6405C37.4844 19.6405 36.5135 19.3007 35.749 18.6211C34.9966 17.99 34.5718 17.0556 34.5961 16.0726C34.5961 14.9925 35.0087 14.143 35.8218 13.4998C36.6349 12.8566 37.7271 12.5411 39.0863 12.5411C40.2513 12.5411 41.1979 12.7595 41.9503 13.1721V12.7231C41.9503 12.0557 41.6591 11.4246 41.1494 10.9998C40.6275 10.5387 39.9601 10.2838 39.2683 10.2838C38.1761 10.2838 37.3145 10.745 36.6713 11.6673L34.948 10.5872C35.8825 9.24017 37.2781 8.56057 39.1348 8.56057ZM36.6106 16.1211C36.6106 16.6308 36.8533 17.1041 37.2538 17.3954C37.6907 17.7352 38.2247 17.9172 38.7708 17.9051C39.596 17.9051 40.3848 17.5774 40.9673 16.9949C41.6105 16.3881 41.9382 15.6721 41.9382 14.8469C41.3314 14.3614 40.4819 14.1187 39.3897 14.1187C38.6009 14.1187 37.9334 14.3129 37.3994 14.6891C36.8776 15.0774 36.6106 15.5507 36.6106 16.1211ZM54.535 8.90037L48.006 23.9001H45.9915L48.4186 18.6575L44.1226 8.91251H46.2463L49.3409 16.3881H49.3895L52.4113 8.91251L54.535 8.90037Z" fill="#5F6368"/>
<path d="M18.7471 11.8128C18.7471 11.2182 18.6985 10.6235 18.6015 10.041H10.3613V13.4026H15.0821C14.8879 14.4827 14.2569 15.4535 13.3346 16.0603V18.2447H16.1501C17.8005 16.7278 18.7471 14.4827 18.7471 11.8128Z" fill="#4285F4"/>
<path d="M10.3618 20.3559C12.7162 20.3559 14.7064 19.5793 16.1506 18.2443L13.3351 16.0599C12.5463 16.5939 11.539 16.8973 10.3618 16.8973C8.08033 16.8973 6.15076 15.356 5.45902 13.293H2.55859V15.5502C4.03915 18.487 7.06094 20.3559 10.3618 20.3559Z" fill="#34A853"/>
<path d="M5.459 13.2938C5.09493 12.2137 5.09493 11.0365 5.459 9.94432V7.69922H2.55857C1.94227 8.91396 1.62109 10.2569 1.62109 11.619C1.62109 12.9812 1.94227 14.3241 2.55857 15.5389L5.459 13.2938Z" fill="#FBBC04"/>
<path d="M10.3618 6.34006C11.6118 6.31579 12.8133 6.78908 13.7113 7.65071L16.1991 5.1629C14.6215 3.67021 12.5341 2.85712 10.3618 2.88139C7.06094 2.88139 4.03915 4.75028 2.55859 7.69926L5.45902 9.95649C6.15076 7.88129 8.08033 6.34006 10.3618 6.34006Z" fill="#EA4335"/>
</svg>
