<svg width="140" height="24" viewBox="0 0 140 24" fill="none" xmlns="http://www.w3.org/2000/svg">
<path d="M35.0105 3.71105L32.8059 6.91129C32.0707 6.61799 31.2864 6.46712 30.4949 6.46671C30.0299 6.46455 29.5663 6.51633 29.1134 6.62103C29.0476 6.63305 28.9825 6.649 28.9186 6.66879C28.2255 6.82988 27.5703 7.1244 26.9897 7.5359C26.9207 7.57821 26.8544 7.62484 26.7913 7.67552C26.2767 8.05363 25.8232 8.50839 25.4465 9.02396C23.9952 10.8427 22.8966 13.433 20.9934 16.1666C20.806 16.4422 20.6259 16.7214 20.3945 17.0007C18.915 19.0615 16.9484 20.7239 14.67 21.8396L14.3026 22.0196C13.9756 22.1593 13.6449 22.2805 13.3106 22.3871C13.0901 22.4532 12.8697 22.512 12.6456 22.5634C12.0144 22.7169 11.3694 22.8068 10.7203 22.8316H10.3088C8.65507 22.8352 7.02579 22.4327 5.56402 21.6594C4.10225 20.8862 2.8527 19.7658 1.92511 18.3968C0.997519 17.0277 0.420264 15.4519 0.244039 13.8076C0.0678148 12.1633 0.298013 10.5009 0.914416 8.9664C1.53082 7.43188 2.51457 6.07218 3.77928 5.00671C5.04399 3.94125 6.55096 3.2026 8.16785 2.85565C9.78474 2.50871 11.4621 2.56407 13.0526 3.01688C14.6431 3.46968 16.0981 4.30609 17.2898 5.45263L15.0852 8.67124C14.4027 7.87007 13.5295 7.25355 12.5461 6.87848C11.5627 6.50341 10.5007 6.38184 9.45802 6.52499C8.41531 6.66813 7.42539 7.07137 6.57945 7.69757C5.73351 8.32377 5.05876 9.15279 4.61736 10.1083C4.17596 11.0637 3.98211 12.1149 4.05365 13.1649C4.1252 14.215 4.45985 15.2302 5.02678 16.1169C5.5937 17.0037 6.37467 17.7335 7.29773 18.2392C8.22079 18.7448 9.25627 19.0101 10.3088 19.0105C10.4458 19.0179 10.5832 19.0179 10.7203 19.0105C11.5646 18.9584 12.3891 18.7319 13.1416 18.3454H13.1783C15.3167 17.3203 17.0583 15.1048 20.0307 10.0086C20.1593 9.79187 20.2842 9.57509 20.3981 9.35096C21.3836 7.55328 22.7325 5.98042 24.3589 4.73248L24.5426 4.59654C24.6198 4.53775 24.7043 4.48264 24.7851 4.42385C24.9799 4.29525 25.1746 4.174 25.362 4.05643C25.5494 3.93885 25.8433 3.78821 26.0785 3.67064L26.3099 3.55674L26.6443 3.40977L27.0925 3.23341C28.3761 2.77696 29.7385 2.584 31.0983 2.66607C32.4581 2.74814 33.7875 3.10355 35.0068 3.71105H35.0105Z" fill="#5022ED"/>
<path d="M40.606 10.8164V12.7417C40.606 13.0866 40.5876 13.4312 40.5509 13.7741C40.5233 14.0652 40.4804 14.3547 40.4223 14.6413C40.0874 16.4094 39.2856 18.0557 38.1001 19.4096C36.9147 20.7636 35.3887 21.7758 33.6803 22.3414C31.9719 22.9069 30.1434 23.0053 28.3842 22.6263C26.625 22.2472 24.9992 21.4046 23.6753 20.1856L25.8798 16.9817C26.6191 17.7989 27.5615 18.4058 28.6112 18.7411C29.6609 19.0764 30.7806 19.128 31.8567 18.8907C32.9328 18.6534 33.9269 18.1356 34.7382 17.3899C35.5496 16.6443 36.1492 15.6972 36.4762 14.6449H30.2044L32.8351 10.8164H40.606Z" fill="#5022ED"/>
<path d="M63.0364 10.6742C62.4351 10.1111 61.637 9.80631 60.8135 9.82542C60.4507 9.80753 60.0883 9.86581 59.7494 9.99649C59.4105 10.1272 59.1028 10.3274 58.846 10.5842C58.5892 10.841 58.389 11.1487 58.2583 11.4876C58.1276 11.8265 58.0693 12.1889 58.0872 12.5517C58.0798 12.9207 58.1482 13.2874 58.2881 13.629C58.4279 13.9706 58.6363 14.2799 58.9004 14.5378C59.1645 14.7957 59.4787 14.9967 59.8235 15.1285C60.1684 15.2602 60.5365 15.3198 60.9053 15.3037C61.7026 15.3007 62.4691 14.9962 63.0511 14.4512V17.115C62.0493 17.6228 60.918 17.8176 59.8041 17.6741C58.6903 17.5306 57.6453 17.0554 56.8049 16.3104C56.3034 15.8326 55.9072 15.2555 55.6415 14.6159C55.3758 13.9762 55.2464 13.2882 55.2617 12.5958C55.2345 11.9092 55.3493 11.2244 55.599 10.5843C55.8488 9.94422 56.228 9.36259 56.713 8.87588C57.198 8.38917 57.7782 8.00788 58.4174 7.75588C59.0567 7.50389 59.741 7.38663 60.4277 7.41146C61.3332 7.39625 62.2296 7.59516 63.0437 7.99199L63.0364 10.6742Z" fill="black"/>
<path d="M74.6177 8.77719C75.1396 9.26136 75.5542 9.84966 75.8346 10.5041C76.1149 11.1585 76.2549 11.8644 76.2453 12.5763C76.2518 13.2854 76.1101 13.988 75.8291 14.6391C75.5482 15.2902 75.1343 15.8753 74.614 16.3571C73.7873 17.1176 72.5344 17.7202 70.7009 17.7202C68.8675 17.7202 67.6183 17.1176 66.7879 16.3571C66.2725 15.8695 65.862 15.2819 65.5815 14.6303C65.3009 13.9786 65.1562 13.2766 65.1562 12.5671C65.1562 11.8577 65.3009 11.1557 65.5815 10.504C65.862 9.85237 66.2725 9.26479 66.7879 8.77719C67.6183 8.01663 68.8675 7.41406 70.7009 7.41406C72.5344 7.41406 73.791 8.01663 74.6177 8.77719ZM73.4346 12.5763C73.4346 12.0364 73.2745 11.5086 72.9745 11.0597C72.6745 10.6107 72.2482 10.2608 71.7493 10.0542C71.2505 9.84757 70.7016 9.79351 70.172 9.89884C69.6425 10.0042 69.1561 10.2642 68.7743 10.646C68.3925 11.0278 68.1325 11.5142 68.0271 12.0437C67.9218 12.5733 67.9759 13.1222 68.1825 13.621C68.3891 14.1199 68.739 14.5462 69.188 14.8462C69.6369 15.1462 70.1647 15.3063 70.7046 15.3063C71.0641 15.3097 71.4206 15.2414 71.7534 15.1055C72.0861 14.9695 72.3885 14.7685 72.6426 14.5143C72.8968 14.2602 73.0978 13.9578 73.2338 13.6251C73.3697 13.2923 73.438 12.9358 73.4346 12.5763Z" fill="black"/>
<path d="M80.2866 2C80.7184 2.00289 81.1317 2.17569 81.437 2.481C81.7423 2.78632 81.9151 3.19958 81.918 3.63135C81.918 3.954 81.8223 4.2694 81.643 4.53768C81.4638 4.80595 81.209 5.01505 80.9109 5.13852C80.6128 5.26199 80.2848 5.2943 79.9684 5.23135C79.6519 5.16841 79.3612 5.01303 79.1331 4.78489C78.9049 4.55674 78.7496 4.26606 78.6866 3.94961C78.6237 3.63316 78.656 3.30515 78.7795 3.00706C78.9029 2.70897 79.112 2.45419 79.3803 2.27493C79.6486 2.09568 79.964 2 80.2866 2V2ZM81.6498 7.72442V17.406H78.9235V7.72442H81.6498Z" fill="black"/>
<path d="M84.7915 7.72697H87.5214V8.98355C87.8512 8.49434 88.2976 8.09504 88.8205 7.82175C89.3433 7.54846 89.926 7.40981 90.5159 7.41834C91.3647 7.41834 92.6176 7.66451 93.3781 8.60143C94.0468 9.42813 94.1387 10.3908 94.1387 11.3314V17.4085H91.4088V12.1323C91.4088 11.5959 91.3867 10.7435 90.8944 10.2291C90.7262 10.0661 90.5271 9.93854 90.3087 9.85397C90.0903 9.76939 89.8572 9.72954 89.6231 9.73677C89.2927 9.71687 88.963 9.78536 88.6679 9.93518C88.3728 10.085 88.1229 10.3107 87.944 10.5892C87.622 11.16 87.475 11.813 87.5214 12.4667V17.4085H84.7915V7.72697Z" fill="black"/>
<path d="M104.67 7.72541H107.396V16.9587C107.396 18.4284 107.264 19.9789 106.055 21.184C105.386 21.8564 104.218 22.5472 102.234 22.5472C100.356 22.5472 99.2354 21.9887 98.6108 21.4449C97.7956 20.6639 97.2479 19.6455 97.0455 18.5349H99.9849C100.091 18.9794 100.324 19.383 100.657 19.696C101.125 20.067 101.715 20.2503 102.311 20.2104C102.92 20.2366 103.515 20.0199 103.964 19.6078C104.592 19.0052 104.658 18.2447 104.658 17.4621V16.11C104.346 16.6142 103.908 17.028 103.387 17.3103C102.865 17.5927 102.279 17.7336 101.686 17.7193C101.067 17.7372 100.45 17.6296 99.8739 17.4029C99.2973 17.1762 98.7727 16.8351 98.3315 16.4002C97.83 15.8949 97.435 15.294 97.1699 14.6332C96.9048 13.9724 96.7751 13.2652 96.7884 12.5533C96.7731 11.8453 96.898 11.1412 97.156 10.4817C97.4139 9.82208 97.7996 9.22001 98.2911 8.7101C99.1878 7.8581 100.383 7.39233 101.62 7.4131C102.222 7.38076 102.821 7.509 103.357 7.78469C103.893 8.06037 104.346 8.47359 104.67 8.98199V7.72541ZM100.496 10.4958C100.21 10.7548 99.9834 11.073 99.8331 11.4284C99.6827 11.7838 99.6116 12.1677 99.6248 12.5533C99.6057 13.2552 99.8615 13.9368 100.338 14.4529C100.588 14.7245 100.893 14.9406 101.232 15.0874C101.571 15.2342 101.937 15.3085 102.307 15.3053C102.972 15.3081 103.616 15.0692 104.118 14.6329C104.397 14.3636 104.618 14.0403 104.768 13.6827C104.917 13.3252 104.993 12.9409 104.989 12.5533C104.996 11.8274 104.714 11.1286 104.207 10.6097C103.964 10.3513 103.669 10.1477 103.342 10.0128C103.014 9.87777 102.661 9.81445 102.307 9.82706C101.64 9.81194 100.993 10.051 100.496 10.4958Z" fill="black"/>
<path d="M117.973 7.72282H120.703V17.4044H117.977V16.1515C117.653 16.6426 117.211 17.0437 116.69 17.3174C116.17 17.5912 115.589 17.7285 115.001 17.7167C112.028 17.7167 110.062 15.3909 110.062 12.5507C110.062 9.71057 112.006 7.40684 114.868 7.40684C115.478 7.37593 116.085 7.50476 116.63 7.78058C117.174 8.0564 117.637 8.46964 117.973 8.9794V7.72282ZM112.873 12.5507C112.86 12.9116 112.919 13.2714 113.048 13.6087C113.177 13.946 113.373 14.2538 113.623 14.5138C113.874 14.7738 114.174 14.9806 114.507 15.1218C114.839 15.2631 115.196 15.3359 115.557 15.3359C115.918 15.3359 116.276 15.2631 116.608 15.1218C116.94 14.9806 117.241 14.7738 117.491 14.5138C117.742 14.2538 117.937 13.946 118.066 13.6087C118.195 13.2714 118.255 12.9116 118.241 12.5507C118.255 12.1899 118.195 11.8301 118.066 11.4928C117.937 11.1555 117.742 10.8477 117.491 10.5877C117.241 10.3277 116.94 10.1209 116.608 9.97962C116.276 9.83837 115.918 9.76556 115.557 9.76556C115.196 9.76556 114.839 9.83837 114.507 9.97962C114.174 10.1209 113.874 10.3277 113.623 10.5877C113.373 10.8477 113.177 11.1555 113.048 11.4928C112.919 11.8301 112.86 12.1899 112.873 12.5507Z" fill="black"/>
<path d="M126.582 10.0505V17.3989H123.852V10.0505H122.779V7.72476H123.852V4.41797H126.582V7.72476H128.46V10.0505H126.582Z" fill="black"/>
<path d="M139.952 14.6992C139.658 15.4156 138.563 17.7194 135.176 17.7194C134.497 17.752 133.819 17.6482 133.182 17.4141C132.545 17.1799 131.961 16.8202 131.465 16.3562C130.954 15.8728 130.553 15.2847 130.291 14.6321C130.028 13.9796 129.91 13.278 129.944 12.5755C129.917 11.8755 130.034 11.1775 130.286 10.5242C130.539 9.87094 130.923 9.27616 131.413 8.77633C131.898 8.31534 132.47 7.95696 133.097 7.72272C133.723 7.48848 134.39 7.3832 135.058 7.4132C137.027 7.4132 138.166 8.19581 138.835 9.00046C139.864 10.2276 140 11.7488 140 12.7996V13.0237H132.773C132.76 13.6026 132.924 14.1716 133.243 14.6551C133.467 14.9551 133.762 15.1957 134.101 15.3558C134.44 15.5159 134.812 15.5907 135.187 15.5736C135.644 15.5884 136.097 15.4773 136.495 15.2524C136.893 15.0276 137.223 14.6977 137.446 14.2987L139.952 14.6992ZM137.446 11.2785C137.356 10.7358 137.077 10.2427 136.657 9.88694C136.238 9.5312 135.706 9.33593 135.155 9.33593C134.605 9.33593 134.073 9.5312 133.654 9.88694C133.234 10.2427 132.955 10.7358 132.865 11.2785H137.446Z" fill="black"/>
</svg>
