<svg width="45" height="48" viewBox="0 0 45 48" fill="none" xmlns="http://www.w3.org/2000/svg">
<g clip-path="url(#clip0)">
<path d="M24.1278 44.5927C23.1146 45.1314 21.8854 45.1314 20.8722 44.5927L20.8587 44.5796C19.0891 43.6206 16.4144 42.0704 13.7532 40.0735C10.8353 37.8796 8.52537 35.62 6.89084 33.3472C4.97262 30.6935 4 28.0397 4 25.4517V5.89021C4 5.33844 4.43227 4.85236 5.02665 4.73413C7.12048 4.30059 9.29536 3.94589 11.4973 3.67C15.077 3.22333 18.7784 3 22.5068 3C26.2351 3 29.9365 3.22333 33.5162 3.67C35.7181 3.94589 37.8795 4.30059 39.9869 4.73413C40.5947 4.8655 41.0135 5.33844 41.0135 5.89021V25.4517C41.0135 28.0397 40.0409 30.6935 38.1362 33.3472C36.5016 35.62 34.1917 37.8796 31.2738 40.0735C28.6126 42.0704 25.9379 43.6337 24.1683 44.5796C24.1413 44.5796 24.1413 44.5927 24.1278 44.5927Z" fill="url(#paint0_linear)"/>
<path d="M23.884 41.6368C23.0195 42.0966 21.9793 42.0966 21.1148 41.6368C21.1148 41.6368 21.1012 41.6368 21.1012 41.6237C19.6018 40.8092 17.3323 39.4692 15.0629 37.7613C12.5773 35.8827 10.6186 33.9515 9.24071 32.0072C7.61968 29.7344 6.79565 27.4617 6.79565 25.2415V8.49138C6.79565 8.01843 7.16039 7.61118 7.67371 7.50608C9.45685 7.13823 11.294 6.82294 13.1582 6.58646C16.1976 6.20548 19.3451 6.00842 22.5061 6.00842C25.6671 6.00842 28.8146 6.20548 31.8541 6.58646C33.7183 6.82294 35.5554 7.12509 37.3386 7.50608C37.8519 7.61118 38.2166 8.01843 38.2166 8.49138V25.2415C38.2166 27.4617 37.3926 29.7344 35.7716 32.0072C34.3802 33.9515 32.4214 35.8827 29.9359 37.7613C27.6799 39.4692 25.4105 40.8092 23.8975 41.6237C23.8975 41.6368 23.884 41.6368 23.884 41.6368Z" fill="url(#paint1_linear)"/>
<path d="M15.8604 21.6944L21.9122 26.6209L29.1528 16.387" stroke="#F2F3F7" stroke-width="2.60677" stroke-miterlimit="10" stroke-linecap="square"/>
</g>
<defs>
<linearGradient id="paint0_linear" x1="-3.92028" y1="55.6694" x2="32.3609" y2="0.0669308" gradientUnits="userSpaceOnUse">
<stop stop-color="#DADCE0"/>
<stop offset="0.9818" stop-color="#E4E7F0"/>
</linearGradient>
<linearGradient id="paint1_linear" x1="-55.9214" y1="96.4645" x2="45.7066" y2="-9.5906" gradientUnits="userSpaceOnUse">
<stop stop-color="#432ECD"/>
<stop offset="0.618" stop-color="#673DE6"/>
<stop offset="0.9818" stop-color="#7A89F0"/>
</linearGradient>
<clipPath id="clip0">
<rect width="37" height="42" fill="white" transform="translate(4 3)"/>
</clipPath>
</defs>
</svg>
